<?xml version="1.0" standalone="no"?><!DOCTYPE svg PUBLIC "-//W3C//DTD SVG 1.1//EN" "http://www.w3.org/Graphics/SVG/1.1/DTD/svg11.dtd"><svg class="icon"  viewBox="0 0 1024 1024" version="1.1" xmlns="http://www.w3.org/2000/svg"><path  d="M223.968 640.48c0-35.328 28.672-63.968 64-63.968 35.36 0 64 28.64 64 63.968s-28.64 64-64 64C252.64 704.48 223.968 675.808 223.968 640.48M672.608 640.48c0-35.328 28.672-63.968 64-63.968s64 28.64 64 63.968-28.672 64-64 64S672.608 675.808 672.608 640.48M704.992 512l-384 0c-17.664 0-32-14.336-32-32s14.336-32 32-32l384 0c17.696 0 32 14.336 32 32S722.688 512 704.992 512zM896 452.192l0-5.472c0-2.112-0.224-4.224-0.64-6.304l-32-159.36c-0.544-2.624-1.376-5.152-2.528-7.552C839.264 228.576 783.264 192 736 192l-35.2 0c-0.224-2.112 0-4.192-0.672-6.304l-19.296-61.376C673.28 90.272 638.176 64 599.2 64l-174.016 0c-38.88 0-73.984 26.24-80.96 57.664l-19.968 63.744C323.584 187.488 323.808 189.888 323.584 192L288 192C242.528 192 183.712 218.304 162.016 276.096 161.44 277.728 160.96 279.36 160.64 281.056l-32 159.68C128.16 443.04 127.968 445.344 128 447.68l0.096 4.768C90.752 465.728 64 501.184 64 542.688l0 195.232C64 790.688 106.176 832 160 832l32 0 0 1.984c0.064 70.528 57.472 127.904 128 127.904s127.936-57.376 128-127.936L448 832l128 0 0 1.984c0.032 70.528 57.472 127.904 128 127.904s127.968-57.376 128-127.936L832 832l32 0c53.856 0 96-41.312 96-94.048l0-195.232C960 500.992 933.248 465.376 896 452.192zM405.952 138.304C406.624 135.328 414.592 128 425.184 128l174.016 0c10.624 0 18.56 7.296 19.904 12.896L635.008 192l-245.664 0L405.952 138.304zM896 737.952C896 755.072 882.24 768 864 768l-64 0c-17.696 0-32 14.304-32 32l0 33.92c-0.032 35.296-28.704 63.968-64 63.968s-63.968-28.672-64-63.936L640 800c0-17.696-14.304-32-32-32l-192 0c-17.664 0-32 14.304-32 32l0 33.92c-0.032 35.296-28.736 63.968-64 63.968s-63.968-28.672-64-63.936L256 800c0-17.696-14.336-32-32-32L160 768c-18.24 0-32-12.928-32-30.048l0-195.232c0-17.568 14.656-31.84 32.672-31.84 8.608 0 16.832-3.456 22.848-9.6s9.312-14.464 9.152-23.04l-0.608-28.32 30.752-153.408C234.016 269.888 263.776 256 288 256l448 0c21.472 0 53.28 20.736 65.536 42.08L832 449.888l0 28.8c0 17.664 14.304 32 32 32 17.664 0 32 14.368 32 32L896 737.952z" /></svg>
